Coordinates
version=1
nRows=22
nColumns=24
inDegrees=yes

Units are S.I. units (second, meters, Newtons, ...)
Angles are in degrees.

endheader
time	pelvis_tilt	pelvis_list	pelvis_rotation	pelvis_tx	pelvis_ty	pelvis_tz	hip_flexion_r	hip_adduction_r	hip_rotation_r	knee_angle_r	ankle_angle_r	subtalar_angle_r	mtp_angle_r	hip_flexion_l	hip_adduction_l	hip_rotation_l	knee_angle_l	ankle_angle_l	subtalar_angle_l	mtp_angle_l	lumbar_extension	lumbar_bending	lumbar_rotation
      0.72100000	      2.96895817	      4.42216972	     -0.38303633	     -0.47941856	      1.02186081	      0.28578448	      9.20968866	     -0.73864611	      0.05190800	    -19.16275852	      7.97201809	     -9.14200500	      8.15653604	     14.44482126	      2.89257196	     -7.07350188	    -64.86232756	      0.72325835	    -17.94393957	      5.99427354	    -11.98273814	     -4.94613791	      3.84324396
      0.72516667	      2.94069981	      4.55420982	     -0.53343463	     -0.47420243	      1.02269415	      0.28593503	      8.79933464	     -0.88199050	      0.13396111	    -18.90180226	      8.08843506	     -9.01288141	      8.16297321	     14.91795787	      3.05628361	     -7.11023739	    -64.25878145	      1.02545137	    -17.88283470	      5.90782292	    -11.96443602	     -5.09345131	      4.01678663
      0.72933333	      2.93491453	      4.67451086	     -0.68551045	     -0.46898683	      1.02351796	      0.28606296	      8.36157516	     -1.01931951	      0.19262878	    -18.63188512	      8.21201693	     -8.86133735	      8.17173846	     15.35181678	      3.20616848	     -7.14111354	    -63.60034169	      1.32082882	    -17.77095178	      5.82201113	    -11.96901085	     -5.22293463	      4.21428833
      0.73350000	      2.92782267	      4.78438914	     -0.83709695	     -0.46377590	      1.02429259	      0.28618310	      7.92417427	     -1.14879785	      0.24023366	    -18.35933569	      8.38587306	     -8.67129464	      8.18825490	     15.77617701	      3.33476130	     -7.18052992	    -62.89650713	      1.60020730	    -17.59429427	      5.68667624	    -11.97581143	     -5.35025097	      4.48687494
      0.73766667	      2.88284788	      4.89774565	     -0.97742551	     -0.45856670	      1.02499029	      0.28626979	      7.52168945	     -1.28437865	      0.29009904	    -18.06849952	      8.45381909	     -8.55011838	      8.19605364	     16.22893413	      3.47269634	     -7.20325155	    -62.13643424	      1.86139981	    -17.44454537	      5.63850417	    -11.94384303	     -5.48903845	      4.59387358
      0.74183333	      2.87644342	      5.00533207	     -1.14620255	     -0.45335001	      1.02568083	      0.28637142	      7.09279013	     -1.41841165	      0.33753834	    -17.81030669	      8.63656508	     -8.33581332	      8.21803592	     16.61526692	      3.59124177	     -7.25164105	    -61.31857911	      2.14788472	    -17.14468417	      5.52761521	    -11.94077956	     -5.59192652	      4.88143720
      0.74600000	      2.83816127	      5.11370403	     -1.30283824	     -0.44813538	      1.02629924	      0.28643504	      6.69217697	     -1.55553955	      0.38430619	    -17.53448799	      8.71017523	     -8.19652678	      8.23041350	     17.02262338	      3.71610948	     -7.28421979	    -60.44656355	      2.37825978	    -16.89456779	      5.47568356	    -11.90251118	     -5.70929162	      5.02074328
      0.75016667	      2.81564830	      5.19332318	     -1.46162365	     -0.44293038	      1.02685219	      0.28650651	      6.27273904	     -1.66338902	      0.42070343	    -17.25798306	      8.88931121	     -7.98751605	      8.25548126	     17.40443201	      3.79294692	     -7.33169760	    -59.55434855	      2.64489644	    -16.55268844	      5.38756396	    -11.89166058	     -5.79568867	      5.29134658
      0.75433333	      2.78708943	      5.27925647	     -1.62347264	     -0.43771737	      1.02738067	      0.28656123	      5.85869539	     -1.78010141	      0.46338767	    -16.97562664	      9.01271668	     -7.81866933	      8.27912833	     17.76987693	      3.87792978	     -7.37829765	    -58.59685041	      2.86076458	    -16.22457039	      5.31357996	    -11.86697832	     -5.88908376	      5.50126192
      0.75850000	      2.74720783	      5.35947380	     -1.77971847	     -0.43250419	      1.02785154	      0.28659692	      5.45436053	     -1.89271828	      0.50144299	    -16.68643458	      9.09014747	     -7.67102050	      8.29439410	     18.13031216	      3.95741085	     -7.41544967	    -57.58972932	      3.03494176	    -15.89634721	      5.27501321	    -11.82890579	     -5.97450722	      5.65340420
      0.76266667	      2.72309114	      5.43166514	     -1.93991762	     -0.42729790	      1.02828502	      0.28663693	      5.03264784	     -1.99810344	      0.54040665	    -16.39734089	      9.21436238	     -7.50867961	      8.31098774	     18.45719816	      4.01885452	     -7.46551025	    -56.54408634	      3.20897824	    -15.54033686	      5.24201679	    -11.81224876	     -6.05142022	      5.84409791
      0.76683333	      2.71852690	      5.47239370	     -2.09696707	     -0.42209791	      1.02868141	      0.28666235	      4.58204850	     -2.07161312	      0.57218749	    -16.09518900	      9.38125545	     -7.32386633	      8.33718668	     18.74937337	      4.04099183	     -7.51511076	    -55.47407048	      3.40061515	    -15.16693512	      5.19293126	    -11.82074792	     -6.08781739	      6.12121925
      0.77100000	      2.66229080	      5.53099758	     -2.25148381	     -0.41689120	      1.02896788	      0.28667438	      4.19627283	     -2.16413619	      0.61067785	    -15.80739704	      9.46452144	     -7.18921210	      8.35234798	     19.07631793	      4.08486623	     -7.55907505	    -54.34279228	      3.49511998	    -14.83270471	      5.16878675	    -11.76587620	     -6.14750941	      6.27548871
      0.77516667	      2.63197134	      5.55429346	     -2.40539189	     -0.41168440	      1.02922287	      0.28668434	      3.77181858	     -2.21883658	      0.65441404	    -15.50399826	      9.62627380	     -7.03032285	      8.37809072	     19.36144538	      4.08092596	     -7.61279696	    -53.19606982	      3.63772247	    -14.46590196	      5.13212020	    -11.74457704	     -6.16502831	      6.55070421
      0.77933333	      2.58979975	      5.58695660	     -2.54999591	     -0.40648007	      1.02943779	      0.28667154	      3.36129510	     -2.28565553	      0.68812113	    -15.19999926	      9.70663769	     -6.91182896	      8.39256164	     19.63645443	      4.09422684	     -7.64889660	    -51.98733279	      3.67955497	    -14.14570891	      5.11418051	    -11.70568278	     -6.19552271	      6.70038437
      0.78350000	      2.55793896	      5.61692724	     -2.70008536	     -0.40126990	      1.02962364	      0.28667004	      2.93853097	     -2.35025017	      0.73180916	    -14.89403932	      9.82662055	     -6.78852233	      8.40894380	     19.87765558	      4.09751669	     -7.69947920	    -50.73641223	      3.72450170	    -13.82621672	      5.09814981	    -11.68159193	     -6.22249969	      6.90168367
      0.78766667	      2.52218457	      5.61993658	     -2.83905964	     -0.39607363	      1.02971478	      0.28665210	      2.51512793	     -2.38480834	      0.77719071	    -14.58308714	      9.98055290	     -6.66438565	      8.43296076	     20.11430562	      4.06942737	     -7.74532605	    -49.47623403	      3.77809688	    -13.52463798	      5.07781313	    -11.66359205	     -6.21366109	      7.17435768
      0.79183333	      2.46777170	      5.62532059	     -2.96359249	     -0.39087404	      1.02976826	      0.28660898	      2.11320517	     -2.42313102	      0.80417282	    -14.27424291	     10.06518427	     -6.57339449	      8.44565012	     20.34700773	      4.04915894	     -7.77439803	    -48.15825037	      3.74311843	    -13.24666672	      5.06865427	    -11.61195089	     -6.20943608	      7.31054675
      0.79600000	      2.42510539	      5.63293762	     -3.09262126	     -0.38566930	      1.02978171	      0.28657127	      1.69985618	     -2.46445913	      0.84497144	    -13.96984389	     10.18691082	     -6.47967676	      8.45924360	     20.54419451	      4.02929282	     -7.81425151	    -46.79973351	      3.70630189	    -12.98755070	      5.06160069	    -11.57712886	     -6.21168378	      7.49257742
      0.80016667	      2.38435916	      5.62381374	     -3.20725661	     -0.38046141	      1.02976640	      0.28651931	      1.27544190	     -2.48756091	      0.87815852	    -13.65104152	     10.29904888	     -6.39587861	      8.47237884	     20.71961375	      3.99301633	     -7.84509374	    -45.40710969	      3.64332833	    -12.75290027	      5.05686627	    -11.55183693	     -6.19207713	      7.68549266
      0.80433333	      2.34755279	      5.60315856	     -3.31597317	     -0.37526458	      1.02969734	      0.28645255	      0.84450065	     -2.49796341	      0.92412566	    -13.32945562	     10.43688002	     -6.32283590	      8.48990578	     20.87309508	      3.94746628	     -7.86948119	    -43.98520180	      3.57989334	    -12.55836005	      5.05460795	    -11.53705863	     -6.15354380	      7.92145323
      0.80850000	      2.29175177	      5.58563548	     -3.41141844	     -0.37005391	      1.02957633	      0.28637337	      0.43669891	     -2.51099954	      0.95606515	    -13.01680195	     10.54740465	     -6.26216051	      8.50373259	     21.02288590	      3.90687873	     -7.89027343	    -42.51633029	      3.46578418	    -12.37545110	      5.05590443	    -11.49630727	     -6.12079128	      8.08943762
